<svg width="215" height="71" viewBox="0 0 215 71" fill="none" xmlns="http://www.w3.org/2000/svg">
<path d="M4.192 23H0.224L9.696 0.535999H13.152L22.624 23H18.432L16.096 17.272H6.528L4.192 23ZM14.592 13.592L11.328 5.624L8.032 13.592H14.592ZM28.603 23H24.923V8.6H28.603V10.04C29.6697 8.90933 31.0457 8.344 32.731 8.344C36.6777 8.344 38.651 10.4133 38.651 14.552V23H34.971V15.192C34.971 12.9307 33.8937 11.8 31.739 11.8C30.5657 11.8 29.5203 12.2587 28.603 13.176V23ZM42.0718 17.528V4.6H45.7518V8.6H50.3918V12.056H45.7518V17.304C45.7518 19.032 46.3278 19.896 47.4798 19.896C48.2051 19.896 48.9411 19.6187 49.6878 19.064L50.8078 21.912C49.6344 22.8507 48.2158 23.32 46.5518 23.32C44.9944 23.32 43.8531 22.8507 43.1278 21.912C42.4238 20.952 42.0718 19.4907 42.0718 17.528ZM58.147 23H54.467V8.6H58.147V23ZM54.083 3.416C54.083 2.776 54.2963 2.264 54.723 1.88C55.171 1.47467 55.7257 1.272 56.387 1.272C56.963 1.272 57.4537 1.47467 57.859 1.88C58.2857 2.28533 58.499 2.79733 58.499 3.416C58.499 4.09867 58.2857 4.65333 57.859 5.08C57.4537 5.50667 56.963 5.72 56.387 5.72C55.7257 5.72 55.171 5.50667 54.723 5.08C54.2963 4.65333 54.083 4.09867 54.083 3.416ZM74.5713 23H70.6353V0.599998H83.4353V4.28H74.5713V10.616H82.4753V14.296H74.5713V23ZM91.397 23H87.717V8.6H91.397V23ZM87.333 3.416C87.333 2.776 87.5463 2.264 87.973 1.88C88.421 1.47467 88.9757 1.272 89.637 1.272C90.213 1.272 90.7037 1.47467 91.109 1.88C91.5357 2.28533 91.749 2.79733 91.749 3.416C91.749 4.09867 91.5357 4.65333 91.109 5.08C90.7037 5.50667 90.213 5.72 89.637 5.72C88.9757 5.72 88.421 5.50667 87.973 5.08C87.5463 4.65333 87.333 4.09867 87.333 3.416ZM95.568 12.632C95.568 11.288 96.0587 10.2213 97.04 9.432C98.0213 8.64267 99.2907 8.248 100.848 8.248C103.195 8.248 105.019 8.856 106.32 10.072L104.944 12.696C103.771 11.7787 102.469 11.32 101.04 11.32C100.528 11.32 100.101 11.448 99.76 11.704C99.4187 11.9387 99.248 12.2267 99.248 12.568C99.248 13.272 100.155 13.8587 101.968 14.328C102.629 14.4773 103.216 14.648 103.728 14.84C104.24 15.0107 104.763 15.2667 105.296 15.608C105.851 15.928 106.277 16.3547 106.576 16.888C106.875 17.4213 107.024 18.04 107.024 18.744C107.024 20.152 106.491 21.272 105.424 22.104C104.379 22.936 102.971 23.352 101.2 23.352C99.9413 23.352 98.7147 23.0853 97.52 22.552C96.304 21.9973 95.5253 21.4427 95.184 20.888L96.976 18.488C97.3813 18.9787 98.0533 19.3947 98.992 19.736C99.952 20.0987 100.773 20.28 101.456 20.28C102.288 20.3653 102.875 20.0987 103.216 19.48C103.557 18.84 103.333 18.3173 102.544 17.912C102.224 17.7413 101.723 17.56 101.04 17.368C100.379 17.176 99.76 16.984 99.184 16.792C98.6293 16.5787 98.0533 16.312 97.456 15.992C96.88 15.672 96.4213 15.2347 96.08 14.68C95.7387 14.104 95.568 13.4213 95.568 12.632ZM113.947 23H110.267V0.599998H113.947V9.912C115.013 8.86667 116.389 8.344 118.075 8.344C122.021 8.344 123.995 10.4453 123.995 14.648V23H120.315V15.128C120.315 14.0613 120.037 13.24 119.483 12.664C118.928 12.088 118.139 11.8 117.115 11.8C115.877 11.8 114.821 12.2373 113.947 13.112V23ZM139.032 18.968L140.088 21.56C138.658 22.7547 136.824 23.352 134.584 23.352C132.28 23.352 130.402 22.6587 128.952 21.272C127.544 19.9067 126.84 18.0827 126.84 15.8C126.84 13.6667 127.533 11.8747 128.92 10.424C130.306 8.97333 132.152 8.248 134.456 8.248C136.354 8.248 137.965 8.87733 139.288 10.136C140.61 11.3947 141.272 12.9947 141.272 14.936C141.272 15.7893 141.197 16.4507 141.048 16.92H130.648C130.797 17.9653 131.256 18.7867 132.024 19.384C132.813 19.9813 133.794 20.28 134.968 20.28C136.568 20.28 137.922 19.8427 139.032 18.968ZM134.296 11.32C132.205 11.32 130.946 12.3653 130.52 14.456H137.592C137.613 13.5387 137.314 12.792 136.696 12.216C136.098 11.6187 135.298 11.32 134.296 11.32ZM147.916 23H144.236V8.6H147.916V10.008C148.705 8.89867 149.804 8.344 151.212 8.344C152.214 8.344 152.961 8.52533 153.452 8.888L152.14 12.344C151.521 11.9813 150.902 11.8 150.284 11.8C149.217 11.8 148.428 12.312 147.916 13.336V23ZM177.404 13.592V23H173.724V14.552C173.724 12.7173 172.903 11.8 171.26 11.8C169.852 11.8 168.86 12.3547 168.284 13.464C168.284 13.5067 168.284 13.6773 168.284 13.976C168.305 14.2533 168.316 14.4347 168.316 14.52V23H164.636V14.296C164.636 13.528 164.423 12.92 163.996 12.472C163.591 12.024 163.004 11.8 162.236 11.8C160.892 11.8 159.889 12.312 159.228 13.336V23H155.548V8.6H159.228V10.2C160.337 8.96267 161.841 8.344 163.74 8.344C164.785 8.344 165.671 8.55733 166.396 8.984C167.143 9.38933 167.655 9.944 167.932 10.648C169.105 9.112 170.727 8.344 172.796 8.344C175.868 8.344 177.404 10.0933 177.404 13.592ZM182.262 12.312L181.334 9.624C182.891 8.70667 184.587 8.248 186.422 8.248C188.427 8.248 189.888 8.73867 190.806 9.72C191.723 10.7013 192.182 12.2053 192.182 14.232V23H188.982V21.336C188.128 22.5733 186.71 23.192 184.726 23.192C183.36 23.192 182.262 22.7973 181.43 22.008C180.619 21.1973 180.214 20.12 180.214 18.776C180.214 17.2827 180.694 16.1307 181.654 15.32C182.614 14.5093 183.883 14.104 185.462 14.104C186.763 14.104 187.851 14.4133 188.726 15.032C188.768 13.752 188.576 12.8133 188.15 12.216C187.744 11.6187 187.04 11.32 186.038 11.32C184.928 11.32 183.67 11.6507 182.262 12.312ZM185.942 20.088C187.179 20.088 188.107 19.6507 188.726 18.776V17.304C188.128 16.8347 187.286 16.6 186.198 16.6C185.515 16.6 184.96 16.76 184.534 17.08C184.107 17.4 183.894 17.8373 183.894 18.392C183.894 18.904 184.086 19.32 184.47 19.64C184.854 19.9387 185.344 20.088 185.942 20.088ZM199.634 23H195.954V8.6H199.634V10.04C200.701 8.90933 202.077 8.344 203.762 8.344C207.709 8.344 209.682 10.4133 209.682 14.552V23H206.002V15.192C206.002 12.9307 204.925 11.8 202.77 11.8C201.597 11.8 200.552 12.2587 199.634 13.176V23ZM7.04 70H3.104V47.6H15.904V51.28H7.04V57.616H14.944V61.296H7.04V70ZM23.8658 70H20.1858V55.6H23.8658V70ZM19.8018 50.416C19.8018 49.776 20.0151 49.264 20.4418 48.88C20.8898 48.4747 21.4444 48.272 22.1058 48.272C22.6818 48.272 23.1724 48.4747 23.5778 48.88C24.0044 49.2853 24.2178 49.7973 24.2178 50.416C24.2178 51.0987 24.0044 51.6533 23.5778 52.08C23.1724 52.5067 22.6818 52.72 22.1058 52.72C21.4444 52.72 20.8898 52.5067 20.4418 52.08C20.0151 51.6533 19.8018 51.0987 19.8018 50.416ZM28.0368 59.632C28.0368 58.288 28.5274 57.2213 29.5088 56.432C30.4901 55.6427 31.7594 55.248 33.3168 55.248C35.6634 55.248 37.4874 55.856 38.7888 57.072L37.4128 59.696C36.2394 58.7787 34.9381 58.32 33.5088 58.32C32.9968 58.32 32.5701 58.448 32.2288 58.704C31.8874 58.9387 31.7168 59.2267 31.7168 59.568C31.7168 60.272 32.6234 60.8587 34.4368 61.328C35.0981 61.4773 35.6848 61.648 36.1968 61.84C36.7088 62.0107 37.2314 62.2667 37.7648 62.608C38.3194 62.928 38.7461 63.3547 39.0448 63.888C39.3434 64.4213 39.4928 65.04 39.4928 65.744C39.4928 67.152 38.9594 68.272 37.8928 69.104C36.8474 69.936 35.4394 70.352 33.6688 70.352C32.4101 70.352 31.1834 70.0853 29.9888 69.552C28.7728 68.9973 27.9941 68.4427 27.6528 67.888L29.4448 65.488C29.8501 65.9787 30.5221 66.3947 31.4608 66.736C32.4208 67.0987 33.2421 67.28 33.9248 67.28C34.7568 67.3653 35.3434 67.0987 35.6848 66.48C36.0261 65.84 35.8021 65.3173 35.0128 64.912C34.6928 64.7413 34.1914 64.56 33.5088 64.368C32.8474 64.176 32.2288 63.984 31.6528 63.792C31.0981 63.5787 30.5221 63.312 29.9248 62.992C29.3488 62.672 28.8901 62.2347 28.5488 61.68C28.2074 61.104 28.0368 60.4213 28.0368 59.632ZM46.4155 70H42.7355V47.6H46.4155V56.912C47.4822 55.8667 48.8582 55.344 50.5435 55.344C54.4902 55.344 56.4635 57.4453 56.4635 61.648V70H52.7835V62.128C52.7835 61.0613 52.5062 60.24 51.9515 59.664C51.3968 59.088 50.6075 58.8 49.5835 58.8C48.3462 58.8 47.2902 59.2373 46.4155 60.112V70ZM71.5003 65.968L72.5563 68.56C71.1269 69.7547 69.2923 70.352 67.0523 70.352C64.7483 70.352 62.8709 69.6587 61.4203 68.272C60.0123 66.9067 59.3083 65.0827 59.3083 62.8C59.3083 60.6667 60.0016 58.8747 61.3883 57.424C62.7749 55.9733 64.6203 55.248 66.9243 55.248C68.8229 55.248 70.4336 55.8773 71.7563 57.136C73.0789 58.3947 73.7403 59.9947 73.7403 61.936C73.7403 62.7893 73.6656 63.4507 73.5163 63.92H63.1163C63.2656 64.9653 63.7243 65.7867 64.4923 66.384C65.2816 66.9813 66.2629 67.28 67.4363 67.28C69.0363 67.28 70.3909 66.8427 71.5003 65.968ZM66.7643 58.32C64.6736 58.32 63.4149 59.3653 62.9883 61.456H70.0603C70.0816 60.5387 69.7829 59.792 69.1643 59.216C68.5669 58.6187 67.7669 58.32 66.7643 58.32ZM80.3843 70H76.7043V55.6H80.3843V57.008C81.1736 55.8987 82.2723 55.344 83.6803 55.344C84.6829 55.344 85.4296 55.5253 85.9203 55.888L84.6083 59.344C83.9896 58.9813 83.3709 58.8 82.7523 58.8C81.6856 58.8 80.8963 59.312 80.3843 60.336V70ZM109.873 60.592V70H106.193V61.552C106.193 59.7173 105.371 58.8 103.729 58.8C102.321 58.8 101.329 59.3547 100.753 60.464C100.753 60.5067 100.753 60.6773 100.753 60.976C100.774 61.2533 100.785 61.4347 100.785 61.52V70H97.1048V61.296C97.1048 60.528 96.8914 59.92 96.4648 59.472C96.0594 59.024 95.4728 58.8 94.7048 58.8C93.3608 58.8 92.3581 59.312 91.6968 60.336V70H88.0168V55.6H91.6968V57.2C92.8061 55.9627 94.3101 55.344 96.2088 55.344C97.2541 55.344 98.1394 55.5573 98.8648 55.984C99.6114 56.3893 100.123 56.944 100.401 57.648C101.574 56.112 103.195 55.344 105.265 55.344C108.337 55.344 109.873 57.0933 109.873 60.592ZM114.731 59.312L113.803 56.624C115.36 55.7067 117.056 55.248 118.891 55.248C120.896 55.248 122.357 55.7387 123.275 56.72C124.192 57.7013 124.651 59.2053 124.651 61.232V70H121.451V68.336C120.597 69.5733 119.179 70.192 117.195 70.192C115.829 70.192 114.731 69.7973 113.899 69.008C113.088 68.1973 112.683 67.12 112.683 65.776C112.683 64.2827 113.163 63.1307 114.123 62.32C115.083 61.5093 116.352 61.104 117.931 61.104C119.232 61.104 120.32 61.4133 121.195 62.032C121.237 60.752 121.045 59.8133 120.619 59.216C120.213 58.6187 119.509 58.32 118.507 58.32C117.397 58.32 116.139 58.6507 114.731 59.312ZM118.411 67.088C119.648 67.088 120.576 66.6507 121.195 65.776V64.304C120.597 63.8347 119.755 63.6 118.667 63.6C117.984 63.6 117.429 63.76 117.003 64.08C116.576 64.4 116.363 64.8373 116.363 65.392C116.363 65.904 116.555 66.32 116.939 66.64C117.323 66.9387 117.813 67.088 118.411 67.088ZM132.103 70H128.423V55.6H132.103V57.04C133.17 55.9093 134.546 55.344 136.231 55.344C140.178 55.344 142.151 57.4133 142.151 61.552V70H138.471V62.192C138.471 59.9307 137.394 58.8 135.239 58.8C134.066 58.8 133.02 59.2587 132.103 60.176V70ZM169.281 64.88L170.785 67.824C170.081 68.5707 169.068 69.1787 167.745 69.648C166.444 70.1173 165.068 70.352 163.617 70.352C160.204 70.352 157.42 69.296 155.265 67.184C153.132 65.072 152.065 62.2773 152.065 58.8C152.065 55.472 153.078 52.7093 155.105 50.512C157.11 48.336 159.916 47.248 163.521 47.248C166.38 47.248 168.652 48.0053 170.337 49.52L168.577 52.432C167.062 51.4293 165.377 50.928 163.521 50.928C161.388 50.928 159.638 51.6427 158.273 53.072C156.908 54.5013 156.225 56.4107 156.225 58.8C156.225 61.1467 156.94 63.0453 158.369 64.496C159.82 65.9467 161.686 66.672 163.969 66.672C165.932 66.672 167.702 66.0747 169.281 64.88ZM173.642 66.032V47.6H177.322V64.528C177.322 66.0853 177.738 66.864 178.57 66.864C179.039 66.864 179.54 66.672 180.074 66.288L180.842 69.104C179.839 69.9147 178.57 70.32 177.034 70.32C174.772 70.32 173.642 68.8907 173.642 66.032ZM192.548 55.6H196.228V70H192.548V68.24C191.396 69.648 189.86 70.352 187.94 70.352C186.404 70.352 185.178 69.84 184.26 68.816C183.343 67.792 182.884 66.32 182.884 64.4V55.6H186.564V63.632C186.564 65.8293 187.482 66.928 189.316 66.928C190.575 66.928 191.652 66.3413 192.548 65.168V55.6ZM200.329 68.752V47.6H204.009V56.496C205.055 55.664 206.324 55.248 207.817 55.248C209.929 55.248 211.593 55.9307 212.809 57.296C214.047 58.6187 214.665 60.3787 214.665 62.576C214.665 64.944 213.919 66.832 212.425 68.24C210.953 69.648 208.959 70.352 206.441 70.352C205.332 70.352 204.212 70.2027 203.081 69.904C201.972 69.6053 201.055 69.2213 200.329 68.752ZM206.953 58.704C205.78 58.704 204.799 59.1627 204.009 60.08V66.192C204.799 66.6827 205.673 66.928 206.633 66.928C207.849 66.928 208.831 66.5653 209.577 65.84C210.345 65.0933 210.729 64.0907 210.729 62.832C210.729 61.5307 210.377 60.5173 209.673 59.792C208.969 59.0667 208.063 58.704 206.953 58.704Z" fill="black"/>
</svg>
